<svg width="50" height="50" viewBox="0 0 50 50" fill="none" xmlns="http://www.w3.org/2000/svg">
<path d="M25 17.5C23.0109 17.5 21.1032 18.2902 19.6967 19.6967C18.2902 21.1032 17.5 23.0109 17.5 25C17.5 26.9891 18.2902 28.8968 19.6967 30.3033C21.1032 31.7098 23.0109 32.5 25 32.5C26.9891 32.5 28.8968 31.7098 30.3033 30.3033C31.7098 28.8968 32.5 26.9891 32.5 25C32.5 23.0109 31.7098 21.1032 30.3033 19.6967C28.8968 18.2902 26.9891 17.5 25 17.5ZM25 12.5C28.3152 12.5 31.4946 13.817 33.8388 16.1612C36.183 18.5054 37.5 21.6848 37.5 25C37.5 28.3152 36.183 31.4946 33.8388 33.8388C31.4946 36.183 28.3152 37.5 25 37.5C21.6848 37.5 18.5054 36.183 16.1612 33.8388C13.817 31.4946 12.5 28.3152 12.5 25C12.5 21.6848 13.817 18.5054 16.1612 16.1612C18.5054 13.817 21.6848 12.5 25 12.5V12.5ZM41.25 11.875C41.25 12.7038 40.9208 13.4987 40.3347 14.0847C39.7487 14.6708 38.9538 15 38.125 15C37.2962 15 36.5013 14.6708 35.9153 14.0847C35.3292 13.4987 35 12.7038 35 11.875C35 11.0462 35.3292 10.2513 35.9153 9.66529C36.5013 9.07924 37.2962 8.75 38.125 8.75C38.9538 8.75 39.7487 9.07924 40.3347 9.66529C40.9208 10.2513 41.25 11.0462 41.25 11.875V11.875ZM25 5C18.815 5 17.805 5.0175 14.9275 5.145C12.9675 5.2375 11.6525 5.5 10.4325 5.975C9.3475 6.395 8.565 6.8975 7.7325 7.7325C6.95002 8.4885 6.34838 9.41146 5.9725 10.4325C5.4975 11.6575 5.235 12.97 5.145 14.9275C5.015 17.6875 5 18.6525 5 25C5 31.185 5.0175 32.195 5.145 35.0725C5.2375 37.03 5.5 38.3475 5.9725 39.565C6.3975 40.6525 6.8975 41.435 7.7275 42.265C8.57 43.105 9.3525 43.6075 10.4275 44.0225C11.6625 44.5 12.9775 44.765 14.9275 44.855C17.6875 44.985 18.6525 45 25 45C31.185 45 32.195 44.9825 35.0725 44.855C37.0275 44.7625 38.345 44.5 39.565 44.0275C40.6475 43.605 41.435 43.1025 42.265 42.2725C43.1075 41.43 43.61 40.6475 44.025 39.5725C44.5 38.34 44.765 37.0225 44.855 35.0725C44.985 32.3125 45 31.3475 45 25C45 18.815 44.9825 17.805 44.855 14.9275C44.7625 12.9725 44.5 11.6525 44.025 10.4325C43.6482 9.4125 43.0477 8.4899 42.2675 7.7325C41.5118 6.94962 40.5888 6.34792 39.5675 5.9725C38.3425 5.4975 37.0275 5.235 35.0725 5.145C32.3125 5.015 31.3475 5 25 5ZM25 0C31.7925 0 32.64 0.0249999 35.305 0.15C37.9675 0.275 39.78 0.6925 41.375 1.3125C43.025 1.9475 44.415 2.8075 45.805 4.195C47.0762 5.44474 48.0599 6.95647 48.6875 8.625C49.305 10.2175 49.725 12.0325 49.85 14.695C49.9675 17.36 50 18.2075 50 25C50 31.7925 49.975 32.64 49.85 35.305C49.725 37.9675 49.305 39.78 48.6875 41.375C48.0617 43.0444 47.0778 44.5565 45.805 45.805C44.5549 47.0758 43.0433 48.0594 41.375 48.6875C39.7825 49.305 37.9675 49.725 35.305 49.85C32.64 49.9675 31.7925 50 25 50C18.2075 50 17.36 49.975 14.695 49.85C12.0325 49.725 10.22 49.305 8.625 48.6875C6.95581 48.0612 5.44382 47.0774 4.195 45.805C2.92352 44.5555 1.93983 43.0437 1.3125 41.375C0.6925 39.7825 0.275 37.9675 0.15 35.305C0.0324999 32.64 0 31.7925 0 25C0 18.2075 0.0249999 17.36 0.15 14.695C0.275 12.03 0.6925 10.22 1.3125 8.625C1.93809 6.95545 2.92201 5.4433 4.195 4.195C5.44418 2.92308 6.95607 1.93932 8.625 1.3125C10.22 0.6925 12.03 0.275 14.695 0.15C17.36 0.0324999 18.2075 0 25 0Z" fill="url(#paint0_linear)"/>
<defs>
<linearGradient id="paint0_linear" x1="25" y1="0" x2="25" y2="50" gradientUnits="userSpaceOnUse">
<stop stop-color="#405DE6"/>
<stop offset="0.109375" stop-color="#5851DB"/>
<stop offset="0.229167" stop-color="#833AB4"/>
<stop offset="0.354167" stop-color="#C13584"/>
<stop offset="0.46875" stop-color="#E1306C"/>
<stop offset="0.583333" stop-color="#FD1D1D"/>
<stop offset="0.682292" stop-color="#F56040"/>
<stop offset="0.796875" stop-color="#F77737"/>
<stop offset="0.895833" stop-color="#FCAF45"/>
<stop offset="1" stop-color="#FFDC80"/>
</linearGradient>
</defs>
</svg>
