<svg width="80" height="80" viewBox="0 0 80 80" fill="none" xmlns="http://www.w3.org/2000/svg">
<rect width="80" height="80" rx="40" fill="#E8F1FF"/>
<path d="M40.418 32.352C38.5547 32.352 36.7678 33.1355 35.4503 34.5301C34.1328 35.9248 33.3926 37.8163 33.3926 39.7886C33.3926 41.7609 34.1328 43.6524 35.4503 45.047C36.7678 46.4417 38.5547 47.2251 40.418 47.2251C42.2812 47.2251 44.0682 46.4417 45.3857 45.047C46.7032 43.6524 47.4434 41.7609 47.4434 39.7886C47.4434 37.8163 46.7032 35.9248 45.3857 34.5301C44.0682 33.1355 42.2812 32.352 40.418 32.352ZM40.418 27.3943C43.5234 27.3943 46.5016 28.7001 48.6975 31.0245C50.8933 33.3489 52.127 36.5014 52.127 39.7886C52.127 43.0757 50.8933 46.2283 48.6975 48.5527C46.5016 50.877 43.5234 52.1829 40.418 52.1829C37.3126 52.1829 34.3343 50.877 32.1385 48.5527C29.9426 46.2283 28.709 43.0757 28.709 39.7886C28.709 36.5014 29.9426 33.3489 32.1385 31.0245C34.3343 28.7001 37.3126 27.3943 40.418 27.3943V27.3943ZM55.6396 26.7746C55.6396 27.5964 55.3312 28.3845 54.7823 28.9656C54.2333 29.5467 53.4888 29.8731 52.7124 29.8731C51.936 29.8731 51.1915 29.5467 50.6425 28.9656C50.0936 28.3845 49.7852 27.5964 49.7852 26.7746C49.7852 25.9528 50.0936 25.1646 50.6425 24.5836C51.1915 24.0025 51.936 23.676 52.7124 23.676C53.4888 23.676 54.2333 24.0025 54.7823 24.5836C55.3312 25.1646 55.6396 25.9528 55.6396 26.7746V26.7746ZM40.418 19.9577C34.6244 19.9577 33.6783 19.9751 30.9829 20.1015C29.1469 20.1932 27.9151 20.4535 26.7723 20.9245C25.756 21.3409 25.023 21.8392 24.2432 22.6671C23.5102 23.4167 22.9466 24.3319 22.5946 25.3443C22.1496 26.5589 21.9037 27.8603 21.8194 29.8013C21.6976 32.5379 21.6836 33.4948 21.6836 39.7886C21.6836 45.9213 21.7 46.9227 21.8194 49.7759C21.9061 51.7168 22.152 53.0232 22.5946 54.2304C22.9927 55.3087 23.461 56.0846 24.2385 56.9076C25.0277 57.7405 25.7607 58.2387 26.7676 58.6502C27.9245 59.1237 29.1563 59.3864 30.9829 59.4757C33.5682 59.6046 34.4721 59.6194 40.418 59.6194C46.2116 59.6194 47.1577 59.6021 49.8531 59.4757C51.6844 59.3839 52.9185 59.1237 54.0613 58.6552C55.0753 58.2362 55.8129 57.738 56.5904 56.915C57.3796 56.0796 57.8503 55.3037 58.239 54.2378C58.684 53.0158 58.9322 51.7094 59.0165 49.7759C59.1383 47.0392 59.1523 46.0824 59.1523 39.7886C59.1523 33.6559 59.1359 32.6544 59.0165 29.8013C58.9299 27.8628 58.684 26.554 58.239 25.3443C57.8861 24.3329 57.3236 23.4181 56.5928 22.6671C55.8849 21.8908 55.0203 21.2942 54.0636 20.922C52.9161 20.451 51.6844 20.1907 49.8531 20.1015C47.2677 19.9726 46.3638 19.9577 40.418 19.9577ZM40.418 15C46.7806 15 47.5745 15.0248 50.0709 15.1487C52.5649 15.2727 54.2627 15.6866 55.7567 16.3014C57.3023 16.931 58.6044 17.7838 59.9064 19.1595C61.0972 20.3987 62.0186 21.8976 62.6065 23.5521C63.1849 25.1311 63.5783 26.9307 63.6954 29.5707C63.8055 32.2132 63.8359 33.0535 63.8359 39.7886C63.8359 46.5236 63.8125 47.364 63.6954 50.0064C63.5783 52.6464 63.1849 54.4436 62.6065 56.0251C62.0203 57.6804 61.0987 59.1797 59.9064 60.4176C58.7354 61.6777 57.3194 62.6529 55.7567 63.2758C54.265 63.888 52.5649 64.3045 50.0709 64.4284C47.5745 64.5449 46.7806 64.5772 40.418 64.5772C34.0553 64.5772 33.2614 64.5524 30.7651 64.4284C28.2711 64.3045 26.5733 63.888 25.0792 63.2758C23.5156 62.6547 22.0993 61.6792 20.9295 60.4176C19.7385 59.1787 18.8171 57.6797 18.2294 56.0251C17.6487 54.4461 17.2576 52.6464 17.1405 50.0064C17.0304 47.364 17 46.5236 17 39.7886C17 33.0535 17.0234 32.2132 17.1405 29.5707C17.2576 26.9283 17.6487 25.1336 18.2294 23.5521C18.8154 21.8966 19.7371 20.3973 20.9295 19.1595C22.0997 17.8984 23.5159 16.9229 25.0792 16.3014C26.5733 15.6866 28.2687 15.2727 30.7651 15.1487C33.2614 15.0322 34.0553 15 40.418 15Z" fill="#0049AF"/>
</svg>
