<svg width="80" height="80" viewBox="0 0 80 80" fill="none" xmlns="http://www.w3.org/2000/svg">
<rect width="80" height="80" rx="40" fill="#E8F1FF"/>
<path d="M40.418 62.7494L53.2978 49.1959C55.8449 46.5154 57.5795 43.1002 58.2821 39.3823C58.9847 35.6644 58.6239 31.8108 57.2453 28.3087C55.8667 24.8066 53.5321 21.8133 50.5369 19.7073C47.5417 17.6014 44.0203 16.4773 40.418 16.4773C36.8157 16.4773 33.2943 17.6014 30.299 19.7073C27.3038 21.8133 24.9693 24.8066 23.5906 28.3087C22.212 31.8108 21.8512 35.6644 22.5538 39.3823C23.2565 43.1002 24.991 46.5154 27.5381 49.1959L40.418 62.7494ZM40.418 70.4927L23.8589 53.0676C20.5838 49.6212 18.3535 45.2303 17.45 40.4501C16.5464 35.6699 17.0102 30.7151 18.7826 26.2123C20.5551 21.7094 23.5566 17.8608 27.4077 15.153C31.2587 12.4453 35.7863 11 40.418 11C45.0496 11 49.5772 12.4453 53.4283 15.153C57.2793 17.8608 60.2809 21.7094 62.0533 26.2123C63.8258 30.7151 64.2895 35.6699 63.386 40.4501C62.4824 45.2303 60.2521 49.6212 56.9771 53.0676L40.418 70.4927ZM40.418 41.1186C41.7982 41.1186 43.1218 40.5417 44.0977 39.5147C45.0737 38.4877 45.622 37.0948 45.622 35.6425C45.622 34.1901 45.0737 32.7972 44.0977 31.7702C43.1218 30.7433 41.7982 30.1663 40.418 30.1663C39.0378 30.1663 37.7141 30.7433 36.7382 31.7702C35.7623 32.7972 35.214 34.1901 35.214 35.6425C35.214 37.0948 35.7623 38.4877 36.7382 39.5147C37.7141 40.5417 39.0378 41.1186 40.418 41.1186ZM40.418 46.5948C37.6576 46.5948 35.0103 45.4409 33.0584 43.3869C31.1065 41.333 30.01 38.5472 30.01 35.6425C30.01 32.7377 31.1065 29.952 33.0584 27.898C35.0103 25.8441 37.6576 24.6902 40.418 24.6902C43.1783 24.6902 45.8256 25.8441 47.7775 27.898C49.7294 29.952 50.8259 32.7377 50.8259 35.6425C50.8259 38.5472 49.7294 41.333 47.7775 43.3869C45.8256 45.4409 43.1783 46.5948 40.418 46.5948Z" fill="#0049AF"/>
</svg>
