<svg width="50" height="60" viewBox="0 0 50 60" fill="none" xmlns="http://www.w3.org/2000/svg">
<path d="M25 52.1907L38.75 38.5216C41.4692 35.8182 43.3209 32.3739 44.071 28.6244C44.8211 24.8748 44.4359 20.9883 42.9641 17.4563C41.4924 13.9243 39.0001 10.9055 35.8025 8.78158C32.605 6.65766 28.8457 5.52403 25 5.52403C21.1543 5.52403 17.395 6.65766 14.1975 8.78158C10.9999 10.9055 8.50764 13.9243 7.03587 17.4563C5.56411 20.9883 5.17893 24.8748 5.92904 28.6244C6.67915 32.3739 8.53085 35.8182 11.25 38.5216L25 52.1907ZM25 60L7.32223 42.4263C3.82595 38.9506 1.44496 34.5222 0.480357 29.7012C-0.484249 24.8803 0.0108523 19.8832 1.90305 15.342C3.79525 10.8007 6.99956 6.91928 11.1108 4.18843C15.222 1.45758 20.0555 0 25 0C29.9445 0 34.778 1.45758 38.8892 4.18843C43.0004 6.91928 46.2048 10.8007 48.097 15.342C49.9892 19.8832 50.4843 24.8803 49.5196 29.7012C48.555 34.5222 46.1741 38.9506 42.6778 42.4263L25 60V60ZM25 30.3754C26.4734 30.3754 27.8865 29.7936 28.9284 28.7578C29.9702 27.7221 30.5556 26.3173 30.5556 24.8526C30.5556 23.3878 29.9702 21.9831 28.9284 20.9474C27.8865 19.9116 26.4734 19.3297 25 19.3297C23.5266 19.3297 22.1135 19.9116 21.0716 20.9474C20.0298 21.9831 19.4444 23.3878 19.4444 24.8526C19.4444 26.3173 20.0298 27.7221 21.0716 28.7578C22.1135 29.7936 23.5266 30.3754 25 30.3754ZM25 35.8983C22.0532 35.8983 19.227 34.7346 17.1433 32.6631C15.0595 30.5916 13.8889 27.7821 13.8889 24.8526C13.8889 21.9231 15.0595 19.1136 17.1433 17.0421C19.227 14.9706 22.0532 13.8069 25 13.8069C27.9468 13.8069 30.773 14.9706 32.8567 17.0421C34.9405 19.1136 36.1111 21.9231 36.1111 24.8526C36.1111 27.7821 34.9405 30.5916 32.8567 32.6631C30.773 34.7346 27.9468 35.8983 25 35.8983Z" fill="url(#paint0_linear)"/>
<defs>
<linearGradient id="paint0_linear" x1="25" y1="0" x2="25" y2="60" gradientUnits="userSpaceOnUse">
<stop stop-color="#EA4335"/>
<stop offset="1" stop-color="#960A0A"/>
</linearGradient>
</defs>
</svg>
