<svg width="80" height="80" viewBox="0 0 80 80" fill="none" xmlns="http://www.w3.org/2000/svg">
<rect width="80" height="80" rx="40" fill="#E8F1FF"/>
<path d="M29.3015 55.8862L30.9969 56.9348C33.8561 58.6999 37.1081 59.6266 40.418 59.6194C44.1233 59.6194 47.7454 58.4563 50.8262 56.2773C53.9071 54.0983 56.3083 51.0011 57.7263 47.3775C59.1442 43.7539 59.5152 39.7666 58.7924 35.9198C58.0695 32.0729 56.2852 28.5394 53.6652 25.766C51.0451 22.9926 47.707 21.1039 44.0729 20.3388C40.4388 19.5736 36.6719 19.9663 33.2487 21.4672C29.8254 22.9682 26.8995 25.51 24.8409 28.7711C22.7824 32.0323 21.6836 35.8664 21.6836 39.7886C21.6836 43.3482 22.5665 46.7616 24.2221 49.7635L25.2104 51.5582L23.6812 57.5099L29.3015 55.8862ZM17.0094 64.5771L20.1755 52.2622C18.0893 48.4766 16.9932 44.1712 17 39.7886C17 26.0978 27.4843 15 40.418 15C53.3517 15 63.8359 26.0978 63.8359 39.7886C63.8359 53.4793 53.3517 64.5771 40.418 64.5771C36.2795 64.5842 32.2139 63.4249 28.6388 61.2183L17.0094 64.5771ZM31.9664 28.1578C32.2802 28.133 32.5964 28.133 32.9102 28.1479C33.0366 28.1578 33.1631 28.1726 33.2896 28.1875C33.6619 28.2321 34.0717 28.4726 34.2099 28.8047C34.9077 30.4805 35.5869 32.1686 36.2426 33.8616C36.3878 34.2384 36.3011 34.7218 36.0248 35.1928C35.8347 35.5112 35.6292 35.819 35.4089 36.1149C35.1443 36.4743 34.5752 37.1337 34.5752 37.1337C34.5752 37.1337 34.3434 37.4262 34.4324 37.7906C34.4651 37.9294 34.5729 38.1302 34.6712 38.2988L34.8094 38.5343C35.4089 39.5927 36.2145 40.6661 37.198 41.6774C37.479 41.965 37.753 42.26 38.0481 42.5351C39.144 43.5589 40.3852 44.3943 41.7247 45.014L41.7364 45.0189C41.9355 45.1107 42.0362 45.1602 42.3265 45.2916C42.4717 45.3561 42.6216 45.4131 42.7738 45.4552C42.9311 45.4976 43.0968 45.4896 43.2498 45.4323C43.4028 45.3749 43.5363 45.2707 43.6333 45.133C45.3287 42.959 45.4833 42.8177 45.4973 42.8177V42.8227C45.6151 42.7064 45.7551 42.6181 45.9077 42.5638C46.0604 42.5095 46.2223 42.4904 46.3825 42.5079C46.523 42.5178 46.6659 42.545 46.797 42.607C48.0405 43.2094 50.0755 44.1489 50.0755 44.1489L51.4385 44.7958C51.668 44.9124 51.8764 45.1875 51.8834 45.4527C51.8928 45.6188 51.9068 45.8865 51.853 46.3774C51.778 47.0194 51.5954 47.7903 51.4127 48.1944C51.2876 48.4701 51.1216 48.7228 50.9209 48.943C50.6846 49.2056 50.4259 49.4446 50.1481 49.6569C50.052 49.7334 49.9544 49.8078 49.8554 49.88C49.5641 50.0756 49.2649 50.2576 48.9585 50.4253C48.3556 50.7643 47.6896 50.959 47.0078 50.9955C46.5746 51.0203 46.1413 51.055 45.7058 51.0302C45.687 51.0302 44.3756 50.8145 44.3756 50.8145C41.0462 49.8875 37.967 48.1509 35.3831 45.7428C34.8539 45.2495 34.3644 44.719 33.8633 44.191C31.7791 41.9972 30.2054 39.6299 29.25 37.394C28.7609 36.2966 28.4968 35.102 28.4748 33.8889C28.4652 32.3838 28.9299 30.9184 29.7956 29.7244C29.9666 29.4914 30.1281 29.2485 30.4068 28.9684C30.7042 28.6709 30.8916 28.5122 31.0953 28.4032C31.3662 28.2595 31.6617 28.1752 31.9641 28.1553L31.9664 28.1578Z" fill="#0049AF"/>
</svg>
