<svg width="50" height="50" viewBox="0 0 50 50" fill="none" xmlns="http://www.w3.org/2000/svg">
<path d="M13.1325 41.235L14.9425 42.2925C17.9949 44.0726 21.4665 45.0072 25 45C28.9556 45 32.8224 43.827 36.1114 41.6294C39.4004 39.4317 41.9638 36.3082 43.4776 32.6536C44.9913 28.9991 45.3874 24.9778 44.6157 21.0982C43.844 17.2186 41.9392 13.6549 39.1421 10.8579C36.3451 8.06081 32.7814 6.156 28.9018 5.38429C25.0222 4.61259 21.0009 5.00865 17.3464 6.52241C13.6918 8.03616 10.5683 10.5996 8.37064 13.8886C6.17301 17.1776 5.00003 21.0444 5.00003 25C5.00003 28.59 5.94253 32.0325 7.71003 35.06L8.76503 36.87L7.13253 42.8725L13.1325 41.235ZM0.0100334 50L3.39003 37.58C1.16288 33.7621 -0.00722658 29.42 3.35806e-05 25C3.35806e-05 11.1925 11.1925 0 25 0C38.8075 0 50 11.1925 50 25C50 38.8075 38.8075 50 25 50C20.582 50.0071 16.2417 48.8379 12.425 46.6125L0.0100334 50ZM15.9775 13.27C16.3125 13.245 16.65 13.245 16.985 13.26C17.12 13.27 17.255 13.285 17.39 13.3C17.7875 13.345 18.225 13.5875 18.3725 13.9225C19.1175 15.6125 19.8425 17.315 20.5425 19.0225C20.6975 19.4025 20.605 19.89 20.31 20.365C20.1071 20.6862 19.8877 20.9966 19.6525 21.295C19.37 21.6575 18.7625 22.3225 18.7625 22.3225C18.7625 22.3225 18.515 22.6175 18.61 22.985C18.645 23.125 18.76 23.3275 18.865 23.4975L19.0125 23.735C19.6525 24.8025 20.5125 25.885 21.5625 26.905C21.8625 27.195 22.155 27.4925 22.47 27.77C23.64 28.8025 24.965 29.645 26.395 30.27L26.4075 30.275C26.62 30.3675 26.7275 30.4175 27.0375 30.55C27.1925 30.615 27.3525 30.6725 27.515 30.715C27.6829 30.7577 27.8598 30.7497 28.0231 30.6918C28.1865 30.634 28.329 30.5289 28.4325 30.39C30.2425 28.1975 30.4075 28.055 30.4225 28.055V28.06C30.5483 27.9427 30.6976 27.8537 30.8606 27.7989C31.0236 27.7442 31.1965 27.7249 31.3675 27.7425C31.5175 27.7525 31.67 27.78 31.81 27.8425C33.1375 28.45 35.31 29.3975 35.31 29.3975L36.765 30.05C37.01 30.1675 37.2325 30.445 37.24 30.7125C37.25 30.88 37.265 31.15 37.2075 31.645C37.1275 32.2925 36.9325 33.07 36.7375 33.4775C36.604 33.7556 36.4267 34.0105 36.2125 34.2325C35.9602 34.4973 35.6841 34.7384 35.3875 34.9525C35.2849 35.0296 35.1807 35.1046 35.075 35.1775C34.7641 35.3748 34.4446 35.5583 34.1175 35.7275C33.4738 36.0694 32.7629 36.2657 32.035 36.3025C31.5725 36.3275 31.11 36.3625 30.645 36.3375C30.625 36.3375 29.225 36.12 29.225 36.12C25.6706 35.1851 22.3835 33.4336 19.625 31.005C19.06 30.5075 18.5375 29.9725 18.0025 29.44C15.7775 27.2275 14.0975 24.84 13.0775 22.585C12.5554 21.4782 12.2734 20.2735 12.25 19.05C12.2397 17.5321 12.7359 16.0542 13.66 14.85C13.8425 14.615 14.015 14.37 14.3125 14.0875C14.63 13.7875 14.83 13.6275 15.0475 13.5175C15.3367 13.3726 15.6522 13.2875 15.975 13.2675L15.9775 13.27Z" fill="#25D366"/>
</svg>
